<svg width="40" height="39" viewBox="0 0 40 39" fill="none" xmlns="http://www.w3.org/2000/svg">
<path d="M12.7599 30.5773C10.4535 30.5773 8.58392 32.447 8.58392 34.7533C8.58392 37.0596 10.4536 38.9292 12.7599 38.9292C15.0662 38.9292 16.9358 37.0595 16.9358 34.7533C16.9359 32.447 15.0662 30.5773 12.7599 30.5773ZM12.7599 37.0733C11.4786 37.0733 10.4399 36.0346 10.4399 34.7533C10.4399 33.4721 11.4786 32.4334 12.7599 32.4334C14.0411 32.4334 15.0798 33.4721 15.0798 34.7533C15.0799 36.0346 14.0411 37.0733 12.7599 37.0733Z" fill="#EEEEEE"/>
<path d="M30.3917 30.5773C28.0854 30.5773 26.2158 32.447 26.2158 34.7533C26.2158 37.0596 28.0855 38.9292 30.3917 38.9292C32.698 38.9292 34.5677 37.0595 34.5677 34.7533C34.5677 32.447 32.6981 30.5773 30.3917 30.5773ZM30.3917 37.0733C29.1104 37.0733 28.0718 36.0346 28.0718 34.7533C28.0718 33.4721 29.1104 32.4334 30.3917 32.4334C31.673 32.4334 32.7117 33.4721 32.7117 34.7533C32.7118 36.0346 31.673 37.0733 30.3917 37.0733Z" fill="#EEEEEE"/>
<path d="M39.8109 6.21762C39.6176 6.00652 39.3532 5.87436 39.0685 5.84639L8.86235 5.42879L8.02716 2.87679C7.43879 1.1708 5.84124 0.0190945 4.03676 0H0.927994C0.415462 0 0 0.415461 0 0.927994C0 1.44053 0.415462 1.85599 0.927994 1.85599H4.03676C5.04575 1.87828 5.93422 2.52616 6.26398 3.48L12.1567 21.251L11.6928 22.3182C11.1753 23.6527 11.3307 25.1547 12.1104 26.355C12.8826 27.5339 14.1817 28.2614 15.5904 28.3038H33.6399C34.1524 28.3038 34.5679 27.8883 34.5679 27.3758C34.5679 26.8632 34.1524 26.4478 33.6399 26.4478H15.5903C14.7948 26.4279 14.0625 26.0094 13.6415 25.3342C13.2251 24.6672 13.1396 23.8455 13.4095 23.1069L13.7807 22.2718L33.315 20.2302C35.4607 19.9938 37.2257 18.4332 37.723 16.3326L39.9502 7.00627C40.0506 6.7377 39.9973 6.43565 39.8109 6.21762ZM35.9133 15.9151C35.6121 17.2673 34.464 18.2648 33.083 18.3743L13.7807 20.3694L9.46556 7.28478L37.9085 7.70237L35.9133 15.9151Z" fill="#EEEEEE"/>
</svg>
