<svg width="36" height="35" viewBox="0 0 36 35" fill="none" xmlns="http://www.w3.org/2000/svg">
<path d="M18.0342 0C18.0246 0.00937753 18.0055 0.00937753 17.9769 0.00937753C8.31248 0.00937753 0.453003 7.72709 0.453003 17.2172C0.453003 21.0901 1.79952 24.8505 4.26337 27.8794L1.71357 33.6935C1.50348 34.1717 1.73267 34.725 2.21016 34.9219C2.38206 34.997 2.57306 35.0157 2.7545 34.9876L12.1037 33.3746C13.9755 34.0405 15.9428 34.378 17.9291 34.3687C27.5935 34.3687 35.453 26.651 35.453 17.1609C35.4721 7.69896 27.6699 0.00937753 18.0342 0ZM17.9387 32.5025C16.0956 32.5025 14.2715 32.1743 12.543 31.5366C12.3807 31.471 12.2088 31.4616 12.0369 31.4898L4.16787 32.8401L6.24972 28.0857C6.39297 27.7575 6.33567 27.373 6.09693 27.1011C4.97005 25.8164 4.07237 24.3535 3.44209 22.7687C2.7354 20.9963 2.37251 19.1114 2.37251 17.2078C2.37251 8.74924 9.38205 1.87551 17.9864 1.87551C26.5717 1.85675 33.543 8.67422 33.5526 17.1046C33.5526 17.1234 33.5526 17.1421 33.5526 17.1609C33.5526 25.6288 26.543 32.5025 17.9387 32.5025Z" fill="#EEEEEE"/>
<path d="M17.1938 13.7568H12.0369C11.5116 13.7568 11.0819 14.1788 11.0819 14.6946C11.0819 15.2104 11.5116 15.6323 12.0369 15.6323H17.1938C17.719 15.6323 18.1487 15.2104 18.1487 14.6946C18.1487 14.1788 17.719 13.7568 17.1938 13.7568Z" fill="#EEEEEE"/>
<path d="M23.8786 18.4456H12.0369C11.5116 18.4456 11.0819 18.8676 11.0819 19.3834C11.0819 19.8991 11.5116 20.3211 12.0369 20.3211H23.8786C24.4039 20.3211 24.8336 19.8991 24.8336 19.3834C24.8336 18.8676 24.4039 18.4456 23.8786 18.4456Z" fill="#EEEEEE"/>
</svg>
