<svg width="104" height="108" viewBox="0 0 104 108" fill="none" xmlns="http://www.w3.org/2000/svg">
<path d="M26.463 1.65266C26.463 1.65266 27.4787 0 28.9339 0C30.3849 0 33.0009 0.211773 33.0009 0.211773C33.0009 0.211773 35.1261 0.55227 38.3225 2.2423C41.5189 3.93233 41.9884 5.96286 41.9884 5.96286C41.9884 5.96286 42.2444 6.78504 42.1719 7.48264C42.0993 8.18025 42.078 9.96578 42.078 9.96578C42.078 9.96578 42.3511 11.5478 41.7494 11.6724C41.1519 11.797 39.7138 12.9887 35.9754 10.2606C32.6211 7.81068 27.4531 2.91914 26.463 1.91841C26.3521 1.80215 26.463 1.65266 26.463 1.65266Z" fill="#EEEEEE"/>
<path d="M15.2821 22.1614C15.2821 22.1614 19.2039 22.4936 25.4004 20.5918C31.5969 18.69 44.3312 14.8864 44.3312 14.8864C44.3312 14.8864 49.0127 14.0185 52.431 14.7203C55.8536 15.4221 54.4965 17.5315 54.4965 17.5315C54.4965 17.5315 46.896 21.5842 37.7933 22.8632L26.4118 25.5913C26.4118 25.5913 16.5837 27.763 15.2778 22.4272" fill="#EEEEEE"/>
<path d="M31.9127 63.6107C31.9127 63.6107 27.3379 63.9222 22.6905 65.8115C18.0432 67.7009 14.0829 67.8877 14.0829 67.8877C14.0829 67.8877 9.17949 68.3819 8.12541 64.6613L31.0378 59.3296V52.2581C31.0378 52.2581 30.5641 49.8704 29.5143 48.3216L10.0501 54.0893C10.0501 54.0893 4.20353 56.3523 1.1181 53.0968C-1.96733 49.8414 2.31728 48.878 2.31728 48.878L36.7777 42.2715L39.7906 33.838L41.4976 23.8846C41.4976 23.8846 42.9187 20.2637 45.2018 23.8846C46.4735 25.8986 49.559 27.7588 49.559 27.7588L41.0623 40.4777C41.0623 40.4777 40.627 41.005 41.1348 40.9718C41.6427 40.9427 50.963 36.8983 53.8094 42.0265C54.138 42.6162 53.8094 43.0189 53.8094 43.0189L35.506 46.6482V47.516L38.4463 50.3687L38.0451 56.8797L44.3654 54.7412C44.3654 54.7412 48.0696 53.1882 49.7766 54.3841C51.4836 55.58 53.3357 55.825 53.3357 55.825L53.4083 58.3995C53.4083 58.3995 42.6968 59.421 37.7208 62.2737L37.5373 67.5763C37.5373 67.5763 44.2544 66.7084 47.4124 69.3743C50.5704 72.0401 49.8833 75.6984 49.8833 75.6984C49.8833 75.6984 49.8833 76.7531 48.1763 76.94C46.4693 77.1268 42.765 73.8381 42.765 73.8381C42.765 73.8381 40.6953 72.227 38.2969 71.6374L38.442 87.2338C38.442 87.2338 36.7521 92.3288 33.4661 96.5352C33.1759 96.9089 32.5571 96.8134 31.8316 96.0992C31.567 95.8376 22.6265 87.3376 21.8327 83.7998C21.6834 83.1395 25.0505 84.8545 26.2881 85.1244C27.2056 85.3237 30.1075 85.8386 31.0336 85.4981C31.7591 85.2282 31.7078 85.0829 31.7591 84.3396L31.9127 63.6107Z" fill="#EEEEEE"/>
<path d="M19.349 29.316C19.349 29.316 24.1842 29.8351 27.9183 35.3619C29.0065 36.973 27.9183 39.7967 27.9183 39.7967C27.9183 39.7967 26.0064 41.6902 23.8769 39.7967C21.7474 37.9032 19.0973 32.0774 19.0973 32.0774C19.0973 32.0774 17.6804 28.88 19.349 29.316Z" fill="#EEEEEE"/>
<path d="M9.61478 83.9825C9.61478 83.9825 12.4186 77.9656 14.77 72.9412C16.1484 69.9972 17.9664 70.6159 17.9664 70.6159C17.9664 70.6159 19.8526 72.7544 18.5467 81.0965C17.2409 89.4387 13.2806 90.2734 13.2806 90.2734C13.2806 90.2734 11.4669 91.1744 9.79402 89.065C8.12114 86.9556 9.61478 83.9825 9.61478 83.9825Z" fill="#EEEEEE"/>
<path d="M102.212 40.976C102.212 40.976 93.3696 42.8985 86.533 44.3851C86.9384 44.9374 87.7364 45.8883 88.9697 46.8059L88.7265 61.8543C88.7265 61.8543 87.1304 73.9253 88.1973 86.0836C89.2599 98.2418 85.5813 107.83 85.5813 107.83C85.5813 107.83 82.3209 110.296 81.126 96.4189C80.3536 87.404 81.9966 70.7321 81.6125 66.4842C81.5186 65.4835 82.3508 51.7971 79.5 45.909C79.0221 46.0128 78.7447 46.0751 78.7276 46.0793C73.0176 47.6323 66.2749 47.8773 66.2749 47.8773C66.2749 47.8773 66.2365 48.334 66.2749 48.7368C66.3091 49.1438 65.8994 49.6586 65.8994 49.6586L64.521 58.96C64.521 58.96 63.6461 64.8523 62.703 68.6933C61.7599 72.5384 57.4753 82.2135 57.4753 82.2135C57.4753 82.2135 51.8848 91.6395 49.4139 93.2548C46.943 94.8659 47.3783 92.6942 47.3783 92.6942L53.9503 78.4307C53.9503 78.4307 57.9788 66.5839 58.9262 61.1899C59.8694 55.7918 59.2847 46.6149 59.2847 46.6149L58.9262 29.9928C58.9262 29.9928 57.5094 28.2239 56.7455 26.3346C55.1068 22.2777 60.087 23.6978 60.087 23.6978L65.3147 25.8695C74.6479 19.8236 78.1344 14.7701 79.2269 13.7154C80.9937 12.0046 81.1516 9.77476 81.1516 9.77476C81.1516 9.77476 81.6594 7.44941 83.8017 8.13041C87.9284 9.44672 90.6298 14.0559 90.6298 14.0559C90.6298 14.0559 91.0992 14.986 90.8133 16.074C90.5231 17.1577 90.4506 16.9086 88.2357 18.2457C83.695 20.978 66.8126 28.3236 66.8126 28.3236L66.4115 43.1435C66.4115 43.1435 76.5085 40.6313 77.1614 40.6022C82.0563 40.3697 88.4875 37.2554 88.4875 37.2554C88.4875 37.2554 95.7338 33.0366 99.6727 34.9591C102.545 36.3585 103.232 38.061 103.885 39.7385C104.538 41.4078 102.212 40.976 102.212 40.976Z" fill="#EEEEEE"/>
</svg>
