<svg width="30" height="30" viewBox="0 0 30 30" fill="none" xmlns="http://www.w3.org/2000/svg">
<path d="M28.0048 29.6652H16.2569C15.1545 29.6652 14.261 28.9499 14.261 28.0675C14.261 27.185 15.1545 26.4698 16.2569 26.4698H28.0041C29.1065 26.4698 30 27.185 30 28.0675C30 28.9499 29.1072 29.6652 28.0048 29.6652Z" fill="#EEEEEE"/>
<path d="M8.74374 29.6652H1.99591C0.893502 29.6652 0 28.9499 0 28.0675C0 27.185 0.893502 26.4698 1.99591 26.4698H8.74308C9.84548 26.4698 10.739 27.185 10.739 28.0675C10.739 28.9499 9.84615 29.6652 8.74374 29.6652Z" fill="#EEEEEE"/>
<path d="M28.0048 16.3855H10.5C9.39759 16.3855 8.50409 15.6702 8.50409 14.7878C8.50409 13.9053 9.39759 13.1901 10.5 13.1901H28.0041C29.1065 13.1901 30 13.9053 30 14.7878C30.0007 15.6702 29.1072 16.3855 28.0048 16.3855Z" fill="#EEEEEE"/>
<path d="M2.6805 16.9335C4.16091 16.9335 5.36101 15.9728 5.36101 14.7878C5.36101 13.6027 4.16091 12.6421 2.6805 12.6421C1.2001 12.6421 0 13.6027 0 14.7878C0 15.9728 1.2001 16.9335 2.6805 16.9335Z" fill="#EEEEEE"/>
<path d="M28.0048 3.19542H16.2569C15.1545 3.19542 14.261 2.48018 14.261 1.59771C14.261 0.715242 15.1545 0 16.2569 0H28.0041C29.1065 0 30 0.715242 30 1.59771C30 2.48018 29.1072 3.19542 28.0048 3.19542Z" fill="#EEEEEE"/>
<path d="M8.74374 3.19542H1.99591C0.893502 3.19542 0 2.48018 0 1.59771C0 0.715242 0.893502 0 1.99591 0H8.74308C9.84548 0 10.739 0.715242 10.739 1.59771C10.739 2.48018 9.84615 3.19542 8.74374 3.19542Z" fill="#EEEEEE"/>
</svg>
